<svg width="24" height="24" viewBox="0 0 24 24" fill="none" xmlns="http://www.w3.org/2000/svg">
<path d="M17 22C17.55 22 18.0207 21.8043 18.412 21.413C18.804 21.021 19 20.55 19 20C19 19.45 18.804 18.979 18.412 18.587C18.0207 18.1957 17.55 18 17 18C16.45 18 15.9793 18.1957 15.588 18.587C15.196 18.979 15 19.45 15 20C15 20.55 15.196 21.021 15.588 21.413C15.9793 21.8043 16.45 22 17 22ZM7 22C7.55 22 8.02067 21.8043 8.412 21.413C8.804 21.021 9 20.55 9 20C9 19.45 8.804 18.979 8.412 18.587C8.02067 18.1957 7.55 18 7 18C6.45 18 5.979 18.1957 5.587 18.587C5.19567 18.979 5 19.45 5 20C5 20.55 5.19567 21.021 5.587 21.413C5.979 21.8043 6.45 22 7 22ZM17.85 6L15.45 11H8.45L5.7 6H17.85ZM18.8 4H4.05C3.6 4 3.29167 4.16667 3.125 4.5C2.95833 4.83333 2.96667 5.18333 3.15 5.55L6.7 11.95C6.88333 12.2833 7.125 12.5417 7.425 12.725C7.725 12.9083 8.06667 13 8.45 13H15.9L17 15H5V17H17C17.75 17 18.3167 16.6707 18.7 16.012C19.0833 15.354 19.1 14.7 18.75 14.05L17.4 11.6L21 4H23V2H19.75L18.8 4ZM15.45 11L17.85 6H5.7L8.45 11H15.45Z" fill="white"/>
</svg>
